<svg xmlns="http://www.w3.org/2000/svg" xmlns:xlink="http://www.w3.org/1999/xlink" width="500" zoomAndPan="magnify" viewBox="0 0 375 374.999991" height="500" preserveAspectRatio="xMidYMid meet" version="1.0"><defs><g/></defs><rect x="-37.5" width="450" fill="#ffffff" y="-37.499999" height="449.999989" fill-opacity="1"/><rect x="-37.5" width="450" fill="#ffffff" y="-37.499999" height="449.999989" fill-opacity="1"/><g fill="#ffffff" fill-opacity="1"><g transform="translate(21.564255, 146.951947)"><g><path d="M 35.28125 -77.84375 C 44.09375 -77.84375 50.882812 -75.65625 55.65625 -71.28125 C 60.4375 -66.914062 62.828125 -61.46875 62.828125 -54.9375 C 62.828125 -48.40625 60.566406 -42.878906 56.046875 -38.359375 C 51.535156 -33.835938 44.613281 -31.578125 35.28125 -31.578125 L 21.171875 -31.578125 L 21.171875 0 L 8.40625 0 L 8.40625 -77.84375 Z M 21.171875 -41.546875 L 35.28125 -41.546875 C 40.132812 -41.546875 43.753906 -42.703125 46.140625 -45.015625 C 48.535156 -47.335938 49.734375 -50.566406 49.734375 -54.703125 C 49.734375 -58.847656 48.535156 -62.078125 46.140625 -64.390625 C 43.753906 -66.710938 40.132812 -67.875 35.28125 -67.875 L 21.171875 -67.875 Z M 21.171875 -41.546875 "/></g></g></g><g fill="#ffffff" fill-opacity="1"><g transform="translate(146.444605, 146.951947)"><g><path d="M 60.921875 0 L 55.328125 -15.90625 L 22.734375 -15.90625 L 17.140625 0 L 3.8125 0 L 31.703125 -77.953125 L 46.484375 -77.953125 L 74.375 0 Z M 26.203125 -25.875 L 51.859375 -25.875 L 39.09375 -62.5 Z M 26.203125 -25.875 "/></g></g></g><g fill="#ffffff" fill-opacity="1"><g transform="translate(282.748699, 146.951947)"><g><path d="M 21.171875 -31.578125 L 21.171875 0 L 8.40625 0 L 8.40625 -77.84375 L 35.28125 -77.84375 C 44.09375 -77.84375 50.882812 -75.65625 55.65625 -71.28125 C 60.4375 -66.914062 62.828125 -61.375 62.828125 -54.65625 C 62.828125 -49.425781 61.238281 -44.71875 58.0625 -40.53125 C 54.894531 -36.351562 50.023438 -33.632812 43.453125 -32.375 L 64.0625 0 L 48.5 0 L 29.015625 -31.578125 Z M 21.171875 -67.875 L 21.171875 -41.546875 L 35.28125 -41.546875 C 40.132812 -41.546875 43.753906 -42.703125 46.140625 -45.015625 C 48.535156 -47.335938 49.734375 -50.566406 49.734375 -54.703125 C 49.734375 -58.847656 48.535156 -62.078125 46.140625 -64.390625 C 43.753906 -66.710938 40.132812 -67.875 35.28125 -67.875 Z M 21.171875 -67.875 "/></g></g></g><g fill="#ffffff" fill-opacity="1"><g transform="translate(89.667308, 303.45696)"><g><path d="M 21.171875 0 L 8.40625 0 L 8.40625 -77.84375 L 21.171875 -77.84375 L 21.171875 -42.34375 L 51.40625 -77.84375 L 68.09375 -77.84375 L 32.921875 -38.75 L 68.09375 0 L 51.296875 0 L 21.171875 -34.828125 Z M 21.171875 0 "/></g></g></g><g fill="#ffffff" fill-opacity="1"><g transform="translate(218.803565, 303.45696)"><g><path d="M 6.5 -61.484375 C 6.945312 -68.429688 9.613281 -73.84375 14.5 -77.71875 C 19.394531 -81.601562 25.707031 -83.546875 33.4375 -83.546875 C 41.164062 -83.546875 47.25 -81.546875 51.6875 -77.546875 C 56.132812 -73.554688 58.359375 -68.460938 58.359375 -62.265625 C 58.359375 -57.640625 57.125 -53.679688 54.65625 -50.390625 C 52.1875 -47.109375 49.238281 -44.910156 45.8125 -43.796875 L 45.8125 -43.34375 C 50.21875 -42 53.648438 -39.550781 56.109375 -36 C 58.578125 -32.457031 59.8125 -27.625 59.8125 -21.5 C 59.8125 -15.375 57.515625 -10.179688 52.921875 -5.921875 C 48.328125 -1.671875 41.941406 0.453125 33.765625 0.453125 C 25.585938 0.453125 18.90625 -1.617188 13.71875 -5.765625 C 8.53125 -9.910156 5.75 -15.863281 5.375 -23.625 L 17.703125 -23.625 C 17.992188 -19.675781 19.519531 -16.445312 22.28125 -13.9375 C 25.050781 -11.4375 28.75 -10.1875 33.375 -10.1875 C 38 -10.1875 41.546875 -11.4375 44.015625 -13.9375 C 46.484375 -16.445312 47.71875 -19.675781 47.71875 -23.625 C 47.71875 -28.851562 46.054688 -32.566406 42.734375 -34.765625 C 39.410156 -36.972656 34.3125 -38.078125 27.4375 -38.078125 L 24.53125 -38.078125 L 24.53125 -48.609375 L 27.546875 -48.609375 C 39.941406 -48.753906 46.140625 -52.820312 46.140625 -60.8125 C 46.140625 -64.394531 44.984375 -67.25 42.671875 -69.375 C 40.359375 -71.507812 37.09375 -72.578125 32.875 -72.578125 C 28.65625 -72.578125 25.382812 -71.507812 23.0625 -69.375 C 20.75 -67.25 19.367188 -64.617188 18.921875 -61.484375 Z M 6.5 -61.484375 "/></g></g></g></svg>